HIERARCHY
ROOT Hips
{
	OFFSET -0.179506 -22.333345 2.821913
	CHANNELS 6 Xposition Yposition Zposition Zrotation Yrotation Xrotation 
	JOINT LeftUpLeg
	{
		OFFSET 6.951974 -9.140623 -0.681533
		CHANNELS 3 Zrotation Yrotation Xrotation
		JOINT LeftLeg
		{
			OFFSET 3.427654 -37.519855 -0.449580
			CHANNELS 3 Zrotation Yrotation Xrotation
			JOINT LeftFoot
			{
				OFFSET -1.359570 -39.796059 -4.369333
				CHANNELS 3 Zrotation Yrotation Xrotation
				JOINT LeftToe
				{
					OFFSET 2.635814 -5.579078 11.928840
					CHANNELS 3 Zrotation Yrotation Xrotation
					End Site
					{
						OFFSET 0.000000 0.000000 0.000000
					}
				}
			}
		}
	}
	JOINT RightUpLeg
	{
		OFFSET -6.767048 -9.052170 -0.431982
		CHANNELS 3 Zrotation Yrotation Xrotation
		JOINT RightLeg
		{
			OFFSET -3.829005 -38.256897 -0.885003
			CHANNELS 3 Zrotation Yrotation Xrotation
			JOINT RightFoot
			{
				OFFSET 1.577377 -39.841461 -4.231180
				CHANNELS 3 Zrotation Yrotation Xrotation
				JOINT RightToe
				{
					OFFSET -2.537174 -4.814398 12.334795
					CHANNELS 3 Zrotation Yrotation Xrotation
					End Site
					{
						OFFSET 0.000000 0.000000 0.000000
					}
				}
			}
		}
	}
	JOINT Spine
	{
		OFFSET -0.253288 10.896323 -2.669631
		CHANNELS 3 Zrotation Yrotation Xrotation
		JOINT Spine1
		{
			OFFSET 0.548704 13.518043 0.109247
			CHANNELS 3 Zrotation Yrotation Xrotation
			JOINT Spine2
			{
				OFFSET 0.145701 5.292222 2.542457
				CHANNELS 3 Zrotation Yrotation Xrotation
				JOINT Neck
				{
					OFFSET -0.277840 21.387037 -4.285703
					CHANNELS 3 Zrotation Yrotation Xrotation
					JOINT Head
					{
						OFFSET 0.515184 6.496960 5.134897
						CHANNELS 3 Zrotation Yrotation Xrotation
						End Site
						{
							OFFSET 0.000000 0.000000 0.000000
						}
					}
				}
				JOINT LeftShoulder
				{
					OFFSET 7.884473 12.174932 -3.408961
					CHANNELS 3 Zrotation Yrotation Xrotation
					JOINT LeftArm
					{
						OFFSET 9.097692 3.046888 -0.886815
						CHANNELS 3 Zrotation Yrotation Xrotation
						JOINT LeftForeArm
						{
							OFFSET 25.961220 -1.277207 -2.745643
							CHANNELS 3 Zrotation Yrotation Xrotation
							JOINT LeftHand
							{
								OFFSET 24.923361 0.898606 -0.117091
								CHANNELS 3 Zrotation Yrotation Xrotation
								End Site
								{
									OFFSET 0.000000 0.000000 0.000000
								}
							}
						}
					}
				}
				JOINT RightShoulder
				{
					OFFSET -8.175920 11.883285 -3.861528
					CHANNELS 3 Zrotation Yrotation Xrotation
					JOINT RightArm
					{
						OFFSET -9.601238 3.255117 -0.914307
						CHANNELS 3 Zrotation Yrotation Xrotation
						JOINT RightForeArm
						{
							OFFSET -25.374195 -1.332924 -2.140099
							CHANNELS 3 Zrotation Yrotation Xrotation
							JOINT RightHand
							{
								OFFSET -25.529810 0.777228 -0.555919
								CHANNELS 3 Zrotation Yrotation Xrotation
								End Site
								{
									OFFSET 0.000000 0.000000 0.000000
								}
							}
						}
					}
				}
			}
		}
	}
}
MOTION
Frames: 18
Frame Time: 0.033333
-34.343559 29.367044 92.600121 169.119290 2.243054 73.496545 7.349063 5.015927 21.080461 -1.031574 -6.808590 10.071174 -3.795245 6.273025 -21.673391 nan nan nan -2.358644 -1.352484 17.824173 1.550928 7.621036 9.961933 11.850632 9.720680 -11.385378 nan nan nan 0.304244 1.385741 2.287662 3.018122 -3.234021 10.173544 4.302481 -0.366140 -6.159790 3.133111 8.721871 17.718234 1.330577 14.916883 4.891323 -18.403033 -12.593344 -1.116206 -38.756778 -29.346746 -3.147446 97.039432 -58.615219 -55.948306 23.542485 -28.344173 18.394230 19.727425 8.683562 5.419238 52.275531 4.523972 3.149166 -5.123694 27.674011 9.594090 6.513638 16.994612 -15.994736 
-34.197468 29.398565 92.496468 168.762226 2.155935 73.263165 7.365717 5.026689 21.094280 -1.145947 -6.718135 10.783651 -3.962688 6.426908 -22.101432 nan nan nan -2.386353 -1.170292 18.057593 1.711839 7.961687 10.028787 11.537517 9.522262 -11.850408 nan nan nan 0.672856 1.161147 2.555257 3.241846 -3.353017 10.377617 4.372322 -0.352102 -6.274204 3.182942 8.916353 17.994435 0.465565 15.818328 4.495497 -18.939392 -11.465855 -0.752612 -37.912373 -27.104472 -3.895045 97.993277 -58.204253 -56.462876 25.097124 -29.415084 18.215811 20.156606 8.445708 5.320049 51.241124 5.132587 2.983792 -4.654748 27.775669 10.122146 6.919760 17.223350 -15.441795 
-34.056007 29.409420 92.385826 168.411851 1.985053 73.188475 7.215902 5.005208 20.924018 -1.254091 -6.663831 11.443931 -3.800175 6.849665 -22.382978 nan nan nan -2.440390 -1.005846 18.074279 1.806348 8.556015 10.140652 11.108046 9.095715 -12.397598 nan nan nan 0.940559 1.032032 2.591293 3.438201 -3.398058 10.708174 4.566341 -0.377987 -6.353696 2.809264 8.795316 18.457348 -0.431255 16.959960 3.577965 -19.577169 -10.403454 -0.689842 -37.281803 -25.145092 -4.570084 98.383932 -57.972706 -56.950892 27.120811 -27.915835 19.995205 20.628337 8.263463 5.209100 50.132633 5.631760 2.912232 -4.282653 28.057954 9.952058 6.202702 16.883817 -14.247322 
-33.899578 29.461355 92.270691 168.068723 1.806509 72.810073 7.257068 5.285081 21.172143 -1.341096 -6.882135 12.014265 -3.815930 7.114517 -22.646000 nan nan nan -2.571586 -0.975002 18.510758 1.903414 9.282558 10.157046 10.840150 8.782601 -12.744406 nan nan nan 1.238070 0.944601 2.961730 3.591575 -3.383239 11.005004 4.747469 -0.396079 -6.368851 2.433484 8.767023 18.626453 -1.250914 17.951256 2.983879 -19.983586 -9.542825 -0.495148 -36.923289 -23.128291 -5.290898 98.003214 -57.557086 -56.404301 30.761204 -27.787801 20.533275 20.986824 8.331537 4.996651 49.241339 5.756179 2.822641 -4.016645 28.434334 9.707567 4.523860 16.907998 -13.226961 
-33.723789 29.508951 92.168320 167.693140 1.781786 72.367819 7.515359 5.518007 21.496908 -1.384182 -6.863823 12.611119 -4.038990 7.079474 -23.087845 nan nan nan -2.514396 -0.949794 19.050915 1.929848 9.707047 10.104097 10.642832 8.582711 -12.997488 nan nan nan 1.604633 0.773018 3.386377 3.811720 -3.413082 11.307725 4.940849 -0.334686 -6.346321 2.177765 8.927347 18.659684 -2.078514 18.740031 2.616433 -20.283652 -8.584945 -0.282080 -36.876829 -21.176194 -5.995190 98.032477 -57.246000 -56.166724 30.800379 -27.783118 20.338936 21.282045 8.385522 4.857208 48.379064 5.967400 2.573104 -3.863383 28.741345 9.705551 5.290764 17.286111 -12.472701 
-33.543015 29.540773 92.083435 167.308892 1.795853 71.944612 7.755904 5.539363 21.866009 -1.287195 -6.257110 13.057855 -4.439050 6.635608 -23.473428 nan nan nan -2.335305 -0.763441 19.529107 1.831732 9.514061 10.085021 10.521195 8.798836 -13.118105 nan nan nan 2.091667 0.553647 3.962989 4.009833 -3.435246 11.617724 5.070821 -0.288168 -6.609405 2.335772 9.460700 18.728890 -3.034690 19.343494 2.634662 -20.642633 -7.472080 0.003458 -36.659086 -19.274366 -7.181984 99.095876 -57.312666 -56.839042 23.975069 -27.761529 21.588456 21.538767 8.280213 4.995188 47.765230 6.409276 2.099104 -4.149319 29.005921 9.525258 7.459742 17.917816 -11.314755 
-33.378883 29.588835 91.999344 166.875940 1.779516 71.459427 8.013782 5.687406 22.328754 -1.269621 -5.903628 13.502791 -4.693856 6.348078 -23.751987 nan nan nan -2.281225 -0.697366 19.980328 1.834780 9.692307 10.227212 10.443245 8.950795 -13.229541 nan nan nan 2.573478 0.317152 4.682684 4.184010 -3.355997 11.891787 5.337527 -0.297780 -6.771235 2.458496 10.034310 18.663351 -4.146987 20.473195 2.645676 -20.997302 -6.130481 -0.003579 -37.009912 -17.253089 -7.778816 99.619394 -57.206203 -56.995003 22.282424 -28.495628 22.493350 21.558591 8.077436 5.004840 47.162253 6.908883 1.959328 -4.051661 29.417179 9.441858 6.226930 18.189270 -9.825871 
-33.231155 29.639782 91.922318 166.491891 1.758282 71.133151 8.150226 5.855479 22.551381 -1.197911 -5.779564 14.052912 -4.872575 6.236077 -24.013512 nan nan nan -2.326507 -0.654336 20.197072 2.046585 10.057900 10.484439 10.387902 8.981220 -13.346499 nan nan nan 2.921949 0.026615 5.089321 4.449243 -3.314817 12.277275 5.615052 -0.198685 -6.866364 2.227906 10.285566 18.474657 -5.196180 21.290692 2.484197 -21.244591 -4.822859 0.275950 -37.750703 -15.361000 -7.851625 99.502853 -56.856284 -56.978421 24.975852 -30.768136 20.749107 21.516526 7.971139 5.103226 46.444886 7.357923 1.856620 -3.684963 29.726069 9.604497 4.837752 18.788536 -8.733656 
-33.084923 29.640518 91.859123 166.243652 1.757943 71.081339 8.164300 5.773578 22.365224 -1.220457 -5.679478 14.675208 -4.911789 6.378608 -24.335992 nan nan nan -2.292801 -0.587274 20.008765 2.242624 10.126612 10.942952 10.117437 9.069879 -13.591425 nan nan nan 3.247198 -0.279034 4.944363 4.734203 -3.427615 12.712764 5.788478 0.019448 -6.648911 1.715504 10.480707 18.866604 -6.170669 22.015767 1.532428 -21.698906 -3.899147 0.512883 -38.092907 -14.054201 -8.370709 98.857285 -56.738754 -57.491203 21.338624 -27.428637 20.543880 21.945238 7.892029 5.378070 45.510643 7.821581 1.431907 -4.107479 30.234643 8.985569 7.094336 18.577894 -7.251836 
-32.969246 29.624889 91.764168 165.963872 1.744830 70.963370 8.184322 5.675352 22.221181 -1.357173 -5.670163 15.312926 -4.713703 6.762440 -24.625038 nan nan nan -2.281216 -0.546902 19.900729 2.485397 10.574351 11.351392 9.826013 8.904819 -13.878119 nan nan nan 3.609335 -0.384887 5.152958 5.035819 -3.346632 13.409158 6.025919 0.068149 -7.063137 1.105955 10.511005 18.902335 -7.050802 22.914054 0.943090 -21.964719 -3.106710 0.744075 -39.145171 -12.413371 -8.225721 97.681730 -56.144128 -57.065528 24.587061 -26.297005 19.706438 22.174242 7.605929 5.335666 44.756732 8.053354 1.204808 -4.284651 30.805244 8.694234 7.022878 18.440267 -5.961727 
-32.881767 29.595585 91.665924 165.627644 1.631712 70.758306 8.145070 5.553822 22.169697 -1.562320 -5.349883 15.988513 -4.516782 6.956875 -24.887412 nan nan nan -2.443586 -0.497603 19.831950 2.699454 10.748072 11.830086 9.658169 9.055222 -14.062999 nan nan nan 4.059254 -0.574175 5.623368 5.208290 -3.310789 13.750440 6.145109 0.137569 -7.245947 0.514166 10.708146 19.029193 -7.997041 23.678980 0.238708 -22.318015 -2.373199 1.069784 -40.004836 -10.994787 -8.605056 96.957586 -55.526428 -57.169868 25.683741 -26.179776 17.976372 22.331095 7.503600 5.487456 43.980510 8.394428 0.956557 -4.169537 31.226118 8.635192 6.923996 18.490626 -4.941841 
-32.755589 29.550192 91.569778 165.417726 1.555206 70.532066 8.176305 5.250295 22.063744 -1.792812 -4.764250 16.808493 -4.578380 6.833730 -25.205598 nan nan nan -2.472635 -0.347364 19.844494 2.793270 10.581107 12.234711 9.568956 9.396212 -14.261153 nan nan nan 4.369425 -0.756936 6.044203 5.452755 -3.390386 14.096270 6.317742 0.237569 -7.286237 0.082021 11.076547 19.145310 -9.065742 24.118485 -0.597145 -22.572082 -1.587207 1.577689 -41.112172 -10.023610 -9.110345 97.034379 -54.921294 -58.601714 23.197443 -25.310503 15.347851 22.251634 7.323512 5.546726 43.493939 8.941464 0.792056 -4.252821 31.337787 8.336659 7.988303 18.507646 -3.711748 
-32.584080 29.521004 91.456146 165.348718 1.628817 70.125074 8.516613 5.159487 22.121647 -1.948694 -4.566964 17.678199 -4.834173 6.589502 -25.634978 nan nan nan -2.374977 -0.410496 20.228217 2.911345 10.714871 12.399841 9.542906 9.557073 -14.476378 nan nan nan 4.673152 -0.820741 6.494820 5.756718 -3.553640 14.673003 6.502373 0.294070 -7.296729 -0.313770 11.392440 18.842930 -9.993372 24.493764 -1.234409 -22.715261 -0.871055 2.004714 -41.945537 -9.229694 -9.722298 96.130556 -54.415387 -59.260611 22.360012 -25.210035 12.600664 22.121032 7.037359 5.330713 43.085462 9.386270 0.686500 -4.189519 31.516108 8.013065 7.951725 18.109584 -2.240775 
-32.446712 29.507881 91.346321 165.311405 1.710216 69.638609 8.816516 5.088418 22.280917 -2.049581 -4.562883 18.444131 -4.812119 6.527363 -25.944364 nan nan nan -2.426354 -0.657419 20.736259 3.144932 11.011170 12.532791 9.634180 9.723994 -14.647594 nan nan nan 5.072748 -0.931260 7.275641 5.938627 -3.680453 14.791978 6.664841 0.356171 -7.177986 -0.921713 11.526154 18.582455 -10.740444 25.091723 -1.948976 -22.790755 -0.064461 2.349781 -42.923962 -8.352105 -9.954578 94.926382 -54.124143 -60.297309 23.327142 -24.740454 9.684215 22.037495 6.797710 5.118931 42.695834 9.476259 0.682096 -4.097523 32.025004 7.128421 6.941470 17.639421 -0.742434 
-32.357719 29.472218 91.266014 165.316767 1.736125 69.374913 8.838829 4.898993 22.124292 -2.005996 -4.367186 19.303121 -4.776891 6.500970 -26.262456 nan nan nan -2.595914 -0.920932 20.892694 3.335470 10.977353 12.826024 9.694510 10.141972 -14.796566 nan nan nan 5.476039 -1.124091 8.092220 6.076964 -3.748899 14.735796 6.846158 0.473327 -7.318983 -1.570430 11.648586 18.717886 -11.549451 25.526912 -2.898346 -22.869233 0.805948 2.704779 -44.219215 -7.494389 -10.072914 93.958348 -53.794712 -61.201293 23.185725 -24.272008 5.572048 21.946167 6.480856 4.960179 42.413901 9.411495 0.535209 -4.186074 32.503535 6.365985 6.662364 17.695473 -0.068735 
-32.279350 29.405596 91.190239 165.428373 1.722542 69.290215 8.610201 4.631612 21.625786 -2.010596 -4.549603 20.402993 -4.628531 7.038312 -26.723900 nan nan nan -2.874903 -1.273902 20.782087 3.721796 11.342876 13.265522 9.609284 10.128124 -15.041836 nan nan nan 5.760956 -1.245013 8.591617 6.253002 -3.837124 14.987189 7.053816 0.601103 -7.514539 -2.508044 11.558949 18.964269 -12.455121 26.087242 -4.545523 -22.924088 1.600549 2.958047 -45.716788 -6.739477 -9.550775 92.878958 -53.130410 -62.046113 29.950087 -22.157866 0.661394 21.963839 6.041432 4.770063 41.848734 9.387689 0.606629 -3.891600 32.971107 5.852127 4.372044 17.605476 0.346707 
-32.185478 29.323353 91.110138 165.605113 1.770542 69.066662 8.553190 4.265028 21.239526 -1.941029 -4.289803 21.558608 -4.745694 7.013497 -27.188074 nan nan nan -2.987247 -1.491931 20.913900 3.913366 11.197372 13.526969 9.511504 10.352202 -15.092724 nan nan nan 6.120463 -1.416392 9.228684 6.436654 -3.954213 15.205255 7.171259 0.659338 -7.600562 -3.109890 11.872682 19.003286 -13.438345 26.218725 -5.779315 -23.055773 2.319242 3.406776 -46.722863 -6.059393 -9.522878 92.050790 -52.770608 -63.183157 29.425833 -20.303309 -4.055689 22.150479 5.579674 5.005206 41.219679 9.811139 0.480969 -4.046425 33.273528 5.099698 3.647743 17.703735 0.561934 
-32.087368 29.259369 91.004623 165.720018 1.899224 68.611480 8.817906 4.067226 21.167075 -1.989309 -4.141438 22.592943 -4.751030 6.787449 -27.544075 nan nan nan -2.959019 -1.726150 21.354072 3.991726 11.081259 13.670516 9.403962 10.530377 -15.104268 nan nan nan 6.512011 -1.682793 9.942524 6.587491 -4.163543 15.356440 7.367002 0.784315 -7.148212 -3.879304 12.248389 18.723451 -14.356107 26.236871 -6.905286 -23.236359 2.823178 3.617535 -47.712281 -5.398762 -9.786369 91.357005 -52.351199 -63.941935 28.923049 -19.264548 -5.985338 22.103829 5.432473 5.107865 40.858779 10.267229 0.072032 -4.190796 33.466906 4.003619 2.773553 17.731360 0.650873 
